<svg width="55" height="55" viewBox="0 0 55 55" fill="none" xmlns="http://www.w3.org/2000/svg">
<g id="Buy" clip-path="url(#clip0_0_680)">
<path id="Vector" d="M55 27.5C55 36.9398 50.243 45.2695 42.9954 50.2218C38.583 53.2367 33.248 55 27.5 55C24.9935 55 22.5669 54.6644 20.2591 54.037C19.1939 53.7474 18.1545 53.3938 17.1443 52.9829C7.08942 48.8927 0 39.0242 0 27.5C0 12.3122 12.3122 0 27.5 0C42.6878 0 55 12.3122 55 27.5Z" fill="#158467"/>
<path id="Vector_2" d="M45.1726 2.85535H9.82654C7.77843 2.85535 6.11812 4.51566 6.11812 6.56376V25.0741C6.11812 27.1222 7.77843 28.7825 9.82654 28.7825H45.1726C47.2207 28.7825 48.881 27.1222 48.881 25.0741V6.56376C48.881 4.51566 47.2207 2.85535 45.1726 2.85535Z" fill="#C0DAD3"/>
<path id="Vector_3" d="M43.7796 39.004V45.4289C43.7796 47.007 43.5124 48.6537 42.995 50.2217C38.5826 53.2366 33.2476 54.9999 27.4996 54.9999C23.836 54.9999 20.3406 54.2839 17.1439 52.9829C15.5815 49.501 15.5623 45.6185 15.5623 45.6185C15.5623 45.5826 15.5601 42.287 14.7441 40.8143C13.8921 39.2789 14.4456 37.3438 15.9821 36.4907C17.5188 35.6388 19.4539 36.1933 20.3058 37.7288C21.3676 39.6437 21.4978 40.591 21.4978 40.591V25.6491C21.4978 24.8813 21.8087 24.1843 22.3138 23.6802C22.8178 23.1751 23.5148 22.8643 24.2825 22.8643C25.8203 22.8643 27.0662 24.1101 27.0673 25.6468V35.5087C27.0673 33.9709 28.3144 32.7239 29.8532 32.7239C30.6221 32.7239 31.318 33.0359 31.822 33.5398C32.3261 34.0439 32.638 34.7397 32.638 35.5087V36.2192C32.638 35.4502 32.9501 34.7533 33.454 34.2493C33.958 33.7452 34.6539 33.4333 35.4239 33.4333C36.1928 33.4333 36.8887 33.7453 37.3927 34.2493C37.8967 34.7533 38.2087 35.4502 38.2087 36.2192V39.004C38.2087 37.4662 39.4558 36.2192 40.9946 36.2192C41.7635 36.2192 42.4594 36.5312 42.9634 37.0351C43.4675 37.5392 43.7796 38.235 43.7796 39.004Z" fill="#FFDCBF"/>
<g id="Group">
<path id="Vector_4" d="M22.8332 45.7204C22.1054 45.7538 21.4986 45.1683 21.4986 44.4398V25.6496C21.4986 24.8806 21.8107 24.1847 22.3146 23.6807C22.8197 23.1756 23.5156 22.8647 24.2845 22.8647C24.7503 22.8647 25.1903 22.9793 25.5753 23.1824C25.3238 23.3126 25.0949 23.4821 24.8961 23.6807C24.3921 24.1847 24.0802 24.8806 24.0802 25.6496V44.439C24.0802 45.1198 23.5481 45.6854 22.868 45.7188C22.8565 45.7193 22.8449 45.7198 22.8332 45.7204Z" fill="#FCBB8D"/>
<path id="Vector_5" d="M28.4033 41.1227C27.6755 41.1561 27.0686 40.5706 27.0686 39.8421V35.5089C27.0686 34.74 27.3807 34.0441 27.8846 33.5401C28.3897 33.035 29.0856 32.7241 29.8545 32.7241C30.3203 32.7241 30.7603 32.8386 31.1453 33.0418C30.8938 33.172 30.6649 33.3415 30.4662 33.5401C29.9622 34.0441 29.6502 34.74 29.6502 35.5089V39.8412C29.6502 40.522 29.1182 41.0877 28.4381 41.121C28.4266 41.1216 28.415 41.1221 28.4033 41.1227Z" fill="#FCBB8D"/>
<path id="Vector_6" d="M33.9739 40.1491C33.2461 40.1825 32.6393 39.597 32.6393 38.8686V36.2191C32.6393 35.4502 32.9513 34.7543 33.4552 34.2503C33.9603 33.7452 34.6562 33.4343 35.4251 33.4343C35.8909 33.4343 36.3309 33.5488 36.7159 33.752C36.4644 33.8822 36.2355 34.0517 36.0368 34.2503C35.5328 34.7543 35.2208 35.4502 35.2208 36.2191V38.8676C35.2208 39.5483 34.6888 40.114 34.0087 40.1473C33.9973 40.1479 33.9856 40.1484 33.9739 40.1491Z" fill="#FCBB8D"/>
<path id="Vector_7" d="M39.545 41.2507C38.8172 41.2841 38.2104 40.6987 38.2104 39.9701V39.0045C38.2104 38.2356 38.5224 37.5397 39.0264 37.0357C39.5315 36.5306 40.2273 36.2197 40.9963 36.2197C41.4621 36.2197 41.902 36.3342 42.287 36.5374C42.0356 36.6676 41.8067 36.8371 41.6079 37.0357C41.1039 37.5397 40.792 38.2356 40.792 39.0045V39.9693C40.792 40.65 40.2599 41.2157 39.5798 41.249C39.5683 41.2497 39.5566 41.2502 39.545 41.2507Z" fill="#FCBB8D"/>
<path id="Vector_8" d="M20.2596 54.037C19.1944 53.7473 18.155 53.3938 17.1448 52.9829C15.5823 49.5011 15.5644 45.6185 15.5644 45.6185C15.5644 45.6006 15.5633 42.2893 14.745 40.8133C13.893 39.2789 14.4475 37.3427 15.983 36.4908C16.89 35.9879 17.9372 35.9744 18.8172 36.3651C18.7319 36.4032 18.6477 36.4448 18.5647 36.4908C17.0292 37.3427 16.4747 39.2789 17.3266 40.8133C18.1449 42.2893 18.146 45.6006 18.146 45.6185C18.146 45.6185 18.1684 50.3384 20.2596 54.037Z" fill="#FCBB8D"/>
</g>
<g id="Group_2">
<path id="Vector_9" d="M13.2222 9.93263C13.2222 9.42334 13.7503 9.1593 14.2973 9.1593H17.9377C19.8995 9.1593 21.7291 9.80061 21.7291 12.4791C21.7291 14.0258 21.1255 15.0443 20.1258 15.4782C21.2764 15.9309 22.0686 16.6665 22.0686 18.5528V18.9489C22.0686 21.8914 20.4278 22.9475 18.2963 22.9475H14.2974C13.6372 22.9475 13.2223 22.5892 13.2223 22.193L13.2222 9.93263ZM15.6554 14.5161H17.768C18.7865 14.5161 19.2769 13.856 19.2769 12.8939C19.2769 11.9132 18.711 11.3095 17.7491 11.3095H15.6555V14.5161H15.6554ZM17.7869 20.7973C18.9374 20.7973 19.6165 20.1749 19.6165 18.7413V18.4396C19.6165 16.9682 18.9374 16.4401 17.7869 16.4401H15.6554V20.7973H17.7869Z" fill="#158467"/>
<path id="Vector_10" d="M30.3674 9.91383C30.3674 9.38575 30.9709 9.1593 31.5934 9.1593C32.1969 9.1593 32.8194 9.38575 32.8194 9.91383V18.7413C32.8194 21.8913 30.82 23.0608 28.2925 23.0608C25.746 23.0608 23.7655 21.8913 23.7655 18.7413V9.91383C23.7655 9.38575 24.3691 9.1593 24.9916 9.1593C25.5951 9.1593 26.2176 9.38575 26.2176 9.91383V18.7413C26.2176 20.2125 26.9909 20.9105 28.2924 20.9105C29.594 20.9105 30.3672 20.2126 30.3672 18.7413V9.91383H30.3674Z" fill="#158467"/>
<path id="Vector_11" d="M38.082 17.4209C38.082 17.3266 38.0631 17.2324 38.0254 17.1757L34.1209 10.423C34.0832 10.3287 34.0643 10.2345 34.0643 10.1778C34.0643 9.57427 35.0262 9.1593 35.6864 9.1593C36.0824 9.1593 36.2712 9.31012 36.441 9.64968L39.308 15.1008L42.194 9.64968C42.3638 9.32903 42.5335 9.1593 42.9296 9.1593C43.5898 9.1593 44.5518 9.57427 44.5518 10.1778C44.5518 10.2344 44.5518 10.3286 44.4952 10.423L40.6096 17.1757C40.5719 17.2323 40.5341 17.3265 40.5341 17.4209V22.1742C40.5341 22.6835 39.9306 22.9475 39.3081 22.9475C38.7046 22.9475 38.0821 22.6834 38.0821 22.1742L38.082 17.4209Z" fill="#158467"/>
</g>
</g>
<defs>
<clipPath id="clip0_0_680">
<rect width="55" height="55" fill="white"/>
</clipPath>
</defs>
</svg>
