<svg width="25" height="32" viewBox="0 0 25 32" fill="none" xmlns="http://www.w3.org/2000/svg">
<g id="Data_Recovery_2_">
<g id="Group">
<g id="Group_2">
<path id="Vector" d="M24.8149 4.62603C24.8149 4.09978 24.4016 3.68642 23.8753 3.68642C23.3491 3.68642 22.9357 4.09978 22.9357 4.62603C22.9357 5.58443 19.29 7.44486 12.6 7.44486C5.90998 7.44486 2.26429 5.58443 2.26429 4.62603C2.26429 4.09978 1.85093 3.68642 1.32468 3.68642C0.798437 3.68642 0.385071 4.09978 0.385071 4.62603V10.3263L0.403863 12.4915L0.385071 13.9344V17.8432L0.403863 19.0484L0.385071 21.4513V27.302C0.385071 30.3839 6.53019 32 12.6 32C18.6698 32 24.8149 30.3839 24.8149 27.302V21.4513L24.7962 19.5693L24.8149 17.8433V13.9345L24.7962 12.2465L24.8149 10.3265V4.62603Z" fill="url(#paint0_linear_0_163)"/>
</g>
</g>
<g id="Group_3">
<g id="Group_4">
<path id="Vector_2" d="M20.6994 21.4513C20.2109 21.6017 19.9477 22.1278 20.0981 22.6352C20.2833 23.1907 20.9098 23.3857 21.282 23.2366C22.8606 22.7291 24.0069 22.1278 24.8149 21.4513V17.8432C24.8149 19.7224 22.5787 20.8499 20.6994 21.4513ZM4.50056 21.4513C2.62134 20.8499 0.385071 19.7224 0.385071 17.8432V21.4513C1.19314 22.1278 2.3394 22.7291 3.91801 23.2366C4.28026 23.3817 4.916 23.193 5.10192 22.6352C5.25232 22.1278 4.98916 21.6017 4.50056 21.4513ZM20.6994 13.9344C20.2109 14.0848 19.9477 14.6109 20.0981 15.1183C20.2833 15.6738 20.9098 15.8688 21.282 15.7197C22.8606 15.2122 24.0069 14.6109 24.8149 13.9344V10.3263C24.8149 12.2055 22.5787 13.333 20.6994 13.9344ZM4.50056 13.9344C2.62134 13.333 0.385071 12.2055 0.385071 10.3263V13.9344C1.19314 14.6109 2.3394 15.2122 3.91801 15.7197C4.28026 15.8648 4.916 15.6762 5.10192 15.1183C5.25232 14.6109 4.98916 14.0848 4.50056 13.9344ZM12.6 9.32408C18.6698 9.32408 24.8149 7.71001 24.8149 4.62602C24.8149 -1.54202 0.385071 -1.54202 0.385071 4.62602C0.385071 7.71001 6.53019 9.32408 12.6 9.32408ZM16.8273 14.6831C15.3353 13.4296 13.3634 12.913 11.4154 13.2488C8.70394 13.7251 6.51822 15.9621 6.10166 18.6911C5.86619 20.2306 6.1425 21.8196 6.80994 23.1451L6.60636 23.1092C6.09345 23.0166 5.60799 23.3588 5.5181 23.8708C5.42727 24.3819 5.7686 24.8692 6.27969 24.9591L8.89663 25.4206C9.34801 25.5047 9.89186 25.186 9.98488 24.659L10.4464 22.0411C10.5372 21.5301 10.1959 21.0428 9.68483 20.9529C9.17281 20.8556 8.68647 21.2034 8.59658 21.7145L8.5033 22.2424C8.02166 21.2664 7.78607 20.1054 7.95883 18.9754C8.25155 17.0623 9.84175 15.4326 11.7402 15.1005C13.1579 14.85 14.537 15.2142 15.6189 16.1227C16.686 17.0182 17.2981 18.3304 17.2981 19.7224C17.2981 22.2567 15.2372 24.3644 12.7046 24.4195C12.1853 24.4314 11.7742 24.8608 11.7852 25.3793C11.7962 25.8913 12.2146 26.2987 12.7248 26.2987C13.9406 26.2987 19.1773 25.1432 19.1773 19.7224C19.1773 17.7744 18.3212 15.9374 16.8273 14.6831Z" fill="url(#paint1_linear_0_163)"/>
</g>
</g>
</g>
<defs>
<linearGradient id="paint0_linear_0_163" x1="12.6" y1="32" x2="12.6" y2="3.68642" gradientUnits="userSpaceOnUse">
<stop stop-color="#158467"/>
<stop offset="1" stop-color="#1FA07F"/>
</linearGradient>
<linearGradient id="paint1_linear_0_163" x1="12.6" y1="26.2988" x2="12.6" y2="8.04589e-06" gradientUnits="userSpaceOnUse">
<stop stop-color="#004835"/>
<stop offset="1" stop-color="#158467"/>
</linearGradient>
</defs>
</svg>
