<svg width="33" height="24" viewBox="0 0 33 24" fill="none" xmlns="http://www.w3.org/2000/svg">
<g id="Group">
<path id="Vector" d="M28.6 6.00437V22.0044H2.60001V3.89L16.6 5.23562L24.6 6.00437H28.6Z" fill="#158467"/>
<path id="Vector_2" d="M28.6 6.00438V22.0044H14.6C15.7044 22.0044 16.6 21.1088 16.6 20.0044V5.23563L24.6 6.00438H28.6Z" fill="#1F9778"/>
<path id="Vector_3" d="M24.6 2.00438V6.00438H4.60001V20.0044C4.60001 21.1088 3.70438 22.0044 2.60001 22.0044C1.53376 22.0094 0.609381 21.1281 0.600006 20.0044V2.00438L2.60001 0.00437927H10.6L12.6 2.00438H24.6Z" fill="#40C6A3"/>
<path id="Vector_4" d="M16.6 2.00438H24.6V6.00438H16.6V2.00438Z" fill="#8AD9C4"/>
<path id="Vector_5" d="M25.6044 23.9956C29.468 23.9956 32.6 20.8636 32.6 17C32.6 13.1364 29.468 10.0044 25.6044 10.0044C21.7408 10.0044 18.6088 13.1364 18.6088 17C18.6088 20.8636 21.7408 23.9956 25.6044 23.9956Z" fill="#C3FDEE"/>
<path id="Vector_6" d="M32.6 17C32.6 20.8638 29.4681 23.9956 25.6044 23.9956V10.0044C29.4681 10.0044 32.6 13.1363 32.6 17Z" fill="#8AD9C4"/>
<path id="Vector_7" d="M26.93 17L28.7875 18.8575L27.4619 20.1831L25.6044 18.3256L23.7469 20.1831L22.4213 18.8575L24.2788 17L22.4213 15.1425L23.7469 13.8169L25.6044 15.6744L27.4619 13.8169L28.7875 15.1425L26.93 17Z" fill="#1F9777"/>
<path id="Vector_8" d="M26.93 17L28.7875 18.8575L27.4619 20.1831L25.6044 18.3256V15.6744L27.4619 13.8169L28.7875 15.1425L26.93 17Z" fill="#158467"/>
</g>
</svg>
