<svg width="33" height="32" viewBox="0 0 33 32" fill="none" xmlns="http://www.w3.org/2000/svg">
<g id="Data center" clip-path="url(#clip0_0_157)">
<g id="Group">
<path id="Vector" d="M31.6625 1.9375H25.0375V5.6875H28.475C28.9928 5.6875 29.4125 6.10725 29.4125 6.625C29.4125 7.14275 28.9928 7.5625 28.475 7.5625H25.0375V9.4375H28.475C28.9928 9.4375 29.4125 9.85725 29.4125 10.375C29.4125 10.8927 28.9928 11.3125 28.475 11.3125H25.0375V13.1875H28.475C28.9928 13.1875 29.4125 13.6073 29.4125 14.125C29.4125 14.6427 28.9928 15.0625 28.475 15.0625H25.0375V16.9375H28.475C28.9928 16.9375 29.4125 17.3573 29.4125 17.875C29.4125 18.3927 28.9928 18.8125 28.475 18.8125H25.0375V22.5625H31.6625C32.1803 22.5625 32.6 22.1427 32.6 21.625V2.875C32.6 2.35725 32.1803 1.9375 31.6625 1.9375Z" fill="#158467"/>
<path id="Vector_2" d="M1.53751 22.5625H8.16251V18.8125H4.72501C4.20726 18.8125 3.78751 18.3927 3.78751 17.875C3.78751 17.3573 4.20726 16.9375 4.72501 16.9375H8.16251V15.0625H4.72501C4.20726 15.0625 3.78751 14.6427 3.78751 14.125C3.78751 13.6073 4.20726 13.1875 4.72501 13.1875H8.16251V11.3125H4.72501C4.20726 11.3125 3.78751 10.8927 3.78751 10.375C3.78751 9.85725 4.20726 9.4375 4.72501 9.4375H8.16251V7.5625H4.72501C4.20726 7.5625 3.78751 7.14275 3.78751 6.625C3.78751 6.10725 4.20726 5.6875 4.72501 5.6875H8.16251V1.9375H1.53751C1.01976 1.9375 0.600006 2.35725 0.600006 2.875V21.625C0.600006 22.1427 1.01976 22.5625 1.53751 22.5625Z" fill="#158467"/>
<path id="Vector_3" d="M31.6625 28.25H28.7011C28.4178 27.4099 27.7525 26.7447 26.9125 26.4614V24.4375H25.0375V26.4826C24.2269 26.7772 23.5877 27.4308 23.3114 28.25H19.3261C19.0428 27.4099 18.3775 26.7447 17.5375 26.4614V24.375H22.225C22.7428 24.375 23.1625 23.9552 23.1625 23.4375V0.9375C23.1625 0.41975 22.7428 0 22.225 0H10.975C10.4573 0 10.0375 0.41975 10.0375 0.9375V23.4375C10.0375 23.9552 10.4573 24.375 10.975 24.375H15.6625V26.4826C14.8519 26.7772 14.2127 27.4308 13.9364 28.25H9.88857C9.61232 27.4308 8.97313 26.7772 8.16251 26.4826V24.4375H6.28751V26.4614C5.44744 26.7447 4.78219 27.4099 4.49894 28.25H1.53751C1.01976 28.25 0.600006 28.6698 0.600006 29.1875C0.600006 29.7052 1.01976 30.125 1.53751 30.125H4.52013C4.91719 31.2175 5.96576 32 7.19376 32C8.42176 32 9.47032 31.2175 9.86738 30.125H13.9576C14.3547 31.2175 15.4033 32 16.6313 32C17.8593 32 18.9078 31.2175 19.3049 30.125H23.3326C23.7297 31.2175 24.7783 32 26.0063 32C27.2343 32 28.2828 31.2175 28.6799 30.125H31.6625C32.1803 30.125 32.6 29.7052 32.6 29.1875C32.6 28.6698 32.1803 28.25 31.6625 28.25ZM16.6 20.6875C16.0823 20.6875 15.6625 20.2677 15.6625 19.75C15.6625 19.2323 16.0823 18.8125 16.6 18.8125C17.1178 18.8125 17.5375 19.2323 17.5375 19.75C17.5375 20.2677 17.1178 20.6875 16.6 20.6875ZM13.475 3.8125H19.7875C20.3053 3.8125 20.725 4.23225 20.725 4.75C20.725 5.26775 20.3053 5.6875 19.7875 5.6875H13.475C12.9573 5.6875 12.5375 5.26775 12.5375 4.75C12.5375 4.23225 12.9573 3.8125 13.475 3.8125ZM13.475 7.5625H19.7875C20.3053 7.5625 20.725 7.98225 20.725 8.5C20.725 9.01775 20.3053 9.4375 19.7875 9.4375H13.475C12.9573 9.4375 12.5375 9.01775 12.5375 8.5C12.5375 7.98225 12.9573 7.5625 13.475 7.5625ZM13.475 11.3125H19.725C20.2428 11.3125 20.6625 11.7323 20.6625 12.25C20.6625 12.7677 20.2428 13.1875 19.725 13.1875H13.475C12.9573 13.1875 12.5375 12.7677 12.5375 12.25C12.5375 11.7323 12.9573 11.3125 13.475 11.3125ZM12.5375 16C12.5375 15.4823 12.9573 15.0625 13.475 15.0625H19.725C20.2428 15.0625 20.6625 15.4823 20.6625 16C20.6625 16.5177 20.2428 16.9375 19.725 16.9375H13.475C12.9573 16.9375 12.5375 16.5177 12.5375 16Z" fill="#158467"/>
</g>
</g>
<defs>
<clipPath id="clip0_0_157">
<rect width="32" height="32" fill="white" transform="translate(0.600006)"/>
</clipPath>
</defs>
</svg>
