<svg width="33" height="32" viewBox="0 0 33 32" fill="none" xmlns="http://www.w3.org/2000/svg">
<g id="Reuse" clip-path="url(#clip0_0_92)">
<path id="Vector" d="M29.3919 2.68127C29.0417 2.53626 28.6383 2.61639 28.3702 2.88445L27.2066 4.04802C24.2782 1.43757 20.5405 0.00693754 16.5817 0C16.572 0 16.5625 0 16.5529 0C12.2861 0 8.2805 1.6562 5.27154 4.66521C-0.166365 10.1031 -0.846619 18.5276 3.22365 24.7333V20.587C3.22365 20.0692 3.64341 19.6494 4.16122 19.6494H9.13356C8.56781 18.512 8.26293 17.2498 8.25206 15.9396C8.23337 13.6947 9.08281 11.5987 10.6439 10.0376C12.1883 8.49318 14.2558 7.64542 16.4735 7.64542C16.4977 7.64542 16.5219 7.64554 16.546 7.64573C18.4699 7.66173 20.2909 8.31067 21.7642 9.49049L20.5024 10.7523C20.2343 11.0204 20.1541 11.4238 20.2991 11.7741C20.4443 12.1244 20.7861 12.3529 21.1653 12.3529H24.0557H29.0331C29.5509 12.3529 29.9707 11.9331 29.9707 11.4153V7.27117V3.5474C29.9706 3.16821 29.7422 2.82639 29.3919 2.68127Z" fill="#1EA682"/>
<path id="Vector_2" d="M29.9706 7.27098V11.4151C29.9706 11.9329 29.5508 12.3527 29.033 12.3527H24.0556C25.6541 15.5626 25.0688 19.446 22.5503 21.9645C21.0059 23.5088 18.9383 24.3566 16.7206 24.3566C16.6966 24.3566 16.6723 24.3565 16.6482 24.3563C14.7243 24.3403 12.9033 23.6913 11.4301 22.5116L12.6919 21.2498C12.96 20.9816 13.0402 20.5784 12.8951 20.228C12.75 19.8777 12.4082 19.6492 12.0289 19.6492H9.13354H4.16126C3.64345 19.6492 3.22369 20.0689 3.22369 20.5867V24.733V28.4545C3.22369 28.8336 3.45207 29.1755 3.80251 29.3207C4.1527 29.4656 4.55608 29.3856 4.82427 29.1174L5.98796 27.9538C9.01666 30.6511 12.8292 32.0001 16.639 32C20.7279 31.9999 24.8137 30.4459 27.9228 27.3368C33.2765 21.9831 34.1169 13.5901 29.9706 7.27098Z" fill="#158467"/>
<g id="Group">
<path id="Vector_3" d="M16.5971 20.4357C15.7322 20.4357 14.8673 20.1066 14.209 19.4481C13.1119 18.3511 12.9026 16.6553 13.6999 15.3245L15.7928 11.8306C15.9622 11.5479 16.2676 11.3748 16.5971 11.3748C16.9267 11.3748 17.2321 11.5479 17.4015 11.8306L19.4944 15.3244C20.2917 16.6553 20.0823 18.3511 18.9853 19.4481C18.3268 20.1066 17.462 20.4357 16.5971 20.4357Z" fill="#158467"/>
<path id="Vector_4" d="M16.5988 24.3556C14.6932 24.3289 12.8908 23.6814 11.4301 22.5118L12.6919 21.2499C12.9601 20.9818 13.0403 20.5786 12.8952 20.2282C12.7501 19.8779 12.4082 19.6494 12.029 19.6494H9.13354H4.16126C3.64345 19.6494 3.22369 20.0691 3.22369 20.5869V24.7332V28.4547C3.22369 28.8338 3.45207 29.1757 3.80251 29.3209C4.1527 29.4658 4.55608 29.3858 4.82427 29.1176L5.98796 27.954C9.00604 30.6418 12.8024 31.9904 16.599 31.9998V24.3556H16.5988Z" fill="#1EA682"/>
</g>
<path id="Vector_5" d="M16.9437 0.00474856C16.8232 0.00187355 16.7026 0.000248536 16.5817 6.10352e-05C16.572 6.10352e-05 16.5626 6.10352e-05 16.553 6.10352e-05C12.2862 6.10352e-05 8.28056 1.65626 5.2716 4.66528C-0.166304 10.1032 -0.846558 18.5277 3.22372 24.7333V20.5871C3.22372 20.0692 3.64347 19.6495 4.16128 19.6495H9.13363C8.56787 18.512 8.26299 17.2498 8.25212 15.9397C8.23343 13.6948 9.08287 11.5988 10.6439 10.0376C12.1883 8.49324 14.2559 7.64548 16.4736 7.64548C16.4977 7.64548 16.5219 7.64561 16.546 7.64579C16.6791 7.64692 16.8117 7.65136 16.9437 7.65848V0.00474856Z" fill="#158467"/>
<path id="Vector_6" d="M16.612 11.3753C16.607 11.3753 16.6021 11.3748 16.5972 11.3748C16.2677 11.3748 15.9622 11.5479 15.7928 11.8306L13.6999 15.3245C12.9026 16.6553 13.112 18.3511 14.209 19.4481C14.8674 20.1066 15.7322 20.4357 16.5971 20.4357C16.602 20.4357 16.607 20.4354 16.6119 20.4354V11.3753H16.612Z" fill="#1EA682"/>
</g>
<defs>
<clipPath id="clip0_0_92">
<rect width="32" height="32" fill="white" transform="translate(0.600006)"/>
</clipPath>
</defs>
</svg>
