<svg width="33" height="32" viewBox="0 0 33 32" fill="none" xmlns="http://www.w3.org/2000/svg">
<g id="Microchip" clip-path="url(#clip0_0_115)">
<g id="Group">
<path id="Vector" d="M8.13125 0H10.0062V4.70312H8.13125V0Z" fill="#BEDAD2"/>
<path id="Vector_2" d="M11.8969 0H13.7719V4.70312H11.8969V0Z" fill="#BEDAD2"/>
<path id="Vector_3" d="M15.6625 0H17.5375V4.70312H15.6625V0Z" fill="#BEDAD2"/>
<path id="Vector_4" d="M16.6 0H17.5375V4.70312H16.6V0Z" fill="#BEDAD2"/>
<path id="Vector_5" d="M19.4281 0H21.3031V4.70312H19.4281V0Z" fill="#BEDAD2"/>
<path id="Vector_6" d="M23.1937 0H25.0687V4.70312H23.1937V0Z" fill="#BEDAD2"/>
<path id="Vector_7" d="M8.13125 27.2969H10.0062V32H8.13125V27.2969Z" fill="#BEDAD2"/>
<path id="Vector_8" d="M11.8969 27.2969H13.7719V32H11.8969V27.2969Z" fill="#BEDAD2"/>
<path id="Vector_9" d="M15.6625 27.2969H17.5375V32H15.6625V27.2969Z" fill="#BEDAD2"/>
<g id="Group_2">
<path id="Vector_10" d="M16.6 27.2969H17.5375V32H16.6V27.2969Z" fill="#BEDAD2"/>
<path id="Vector_11" d="M19.4281 27.2969H21.3031V32H19.4281V27.2969Z" fill="#BEDAD2"/>
<path id="Vector_12" d="M23.1937 27.2969H25.0687V32H23.1937V27.2969Z" fill="#BEDAD2"/>
<path id="Vector_13" d="M27.8969 7.53125H32.6V9.40625H27.8969V7.53125Z" fill="#BEDAD2"/>
<path id="Vector_14" d="M27.8969 11.2969H32.6V13.1719H27.8969V11.2969Z" fill="#BEDAD2"/>
<path id="Vector_15" d="M27.8969 15.0625H32.6V16.9375H27.8969V15.0625Z" fill="#BEDAD2"/>
<path id="Vector_16" d="M27.8969 18.8281H32.6V20.7031H27.8969V18.8281Z" fill="#BEDAD2"/>
<path id="Vector_17" d="M27.8969 22.5938H32.6V24.4688H27.8969V22.5938Z" fill="#BEDAD2"/>
</g>
<path id="Vector_18" d="M0.599998 7.53125H5.30312V9.40625H0.599998V7.53125Z" fill="#BEDAD2"/>
<path id="Vector_19" d="M0.599998 11.2969H5.30312V13.1719H0.599998V11.2969Z" fill="#BEDAD2"/>
<path id="Vector_20" d="M0.599998 15.0625H5.30312V16.9375H0.599998V15.0625Z" fill="#BEDAD2"/>
<path id="Vector_21" d="M0.599998 18.8281H5.30312V20.7031H0.599998V18.8281Z" fill="#BEDAD2"/>
<path id="Vector_22" d="M0.599998 22.5938H5.30312V24.4688H0.599998V22.5938Z" fill="#BEDAD2"/>
<path id="Vector_23" d="M28.6994 9.01249L27.8969 9.90187L28.6994 10.8875V17.0794L27.8969 17.955L28.6994 18.9575V23.1287L27.8969 24.0025L28.6994 25.0037V26.0831L26.6831 28.0994H6.51625L4.5 26.0831V22.9875L5.30312 22.05L4.5 21.1125V14.9206L5.30312 13.9831L4.5 13.0456V8.87124L5.30312 7.84499L4.5 6.99624V5.91687L6.51625 3.90062H26.6831L28.6994 5.91687V9.01249Z" fill="#1EA985"/>
<path id="Vector_24" d="M28.6994 9.01249L27.8969 9.90187L28.6994 10.8875V17.0794L27.8969 17.955L28.6994 18.9575V23.1287L27.8969 24.0025L28.6994 25.0037V26.0831L26.6831 28.0994H16.6V3.90062H26.6831L28.6994 5.91687V9.01249Z" fill="#158467"/>
<path id="Vector_25" d="M28.7 9.0125V10.8875H17.22L16.6 10.2675L15.2031 8.87125H4.5V6.99625H15.98L16.6 7.61625L17.9969 9.0125H28.7Z" fill="#158467"/>
<path id="Vector_26" d="M28.7 23.1288V25.0038H17.22L16.6 24.3838L15.2031 22.9875H4.5V21.1125H15.98L16.6 21.7325L17.9969 23.1288H28.7Z" fill="#158467"/>
<path id="Vector_27" d="M28.7 17.0794V18.9544H18.2281L16.6 17.3262L14.195 14.9206H4.5V13.0456H14.9719L16.6 14.6737L19.005 17.0794H28.7Z" fill="#158467"/>
<path id="Vector_28" d="M28.7 9.01251V10.8875H17.22L16.6 10.2675V7.61626L17.9969 9.01251H28.7Z" fill="#1EA985"/>
<path id="Vector_29" d="M19.005 17.0794H28.7V18.9544H18.2281L16.6 17.3263V14.6738L19.005 17.0794Z" fill="#1EA985"/>
<path id="Vector_30" d="M17.9969 23.1287H28.7V25.0037H17.22L16.6 24.3837V21.7325L17.9969 23.1287Z" fill="#1EA985"/>
<path id="Vector_31" d="M22.6499 11.9668C23.7636 11.9668 24.6665 11.0639 24.6665 9.95013C24.6665 8.83638 23.7636 7.9335 22.6499 7.9335C21.5361 7.9335 20.6332 8.83638 20.6332 9.95013C20.6332 11.0639 21.5361 11.9668 22.6499 11.9668Z" fill="white"/>
<path id="Vector_32" d="M22.6499 20.0333C23.7636 20.0333 24.6665 19.1304 24.6665 18.0166C24.6665 16.9029 23.7636 16 22.6499 16C21.5361 16 20.6332 16.9029 20.6332 18.0166C20.6332 19.1304 21.5361 20.0333 22.6499 20.0333Z" fill="white"/>
<path id="Vector_33" d="M10.5501 16C11.6639 16 12.5668 15.0971 12.5668 13.9834C12.5668 12.8696 11.6639 11.9668 10.5501 11.9668C9.43637 11.9668 8.5335 12.8696 8.5335 13.9834C8.5335 15.0971 9.43637 16 10.5501 16Z" fill="white"/>
<path id="Vector_34" d="M10.5501 24.0665C11.6639 24.0665 12.5668 23.1636 12.5668 22.0499C12.5668 20.9361 11.6639 20.0332 10.5501 20.0332C9.43637 20.0332 8.5335 20.9361 8.5335 22.0499C8.5335 23.1636 9.43637 24.0665 10.5501 24.0665Z" fill="white"/>
</g>
</g>
<defs>
<clipPath id="clip0_0_115">
<rect width="32" height="32" fill="white" transform="translate(0.599998)"/>
</clipPath>
</defs>
</svg>
