<svg width="33" height="32" viewBox="0 0 33 32" fill="none" xmlns="http://www.w3.org/2000/svg">
<g id="Product" clip-path="url(#clip0_0_153)">
<path id="Vector" d="M30.4635 15.5146C30.295 15.2346 29.9891 15.0624 29.6615 15.0624C28.0096 15.0624 26.4942 15.9792 25.7274 17.4423L22.8517 22.9306C22.3629 23.8607 21.4088 24.4374 20.3597 24.4374H13.9931C13.475 24.4374 13.0556 24.018 13.0556 23.4999C13.0556 22.9818 13.475 22.5624 13.9931 22.5624H20.3595C20.7094 22.5624 21.028 22.3703 21.191 22.0597C21.3534 21.7497 21.8439 20.8134 22.2655 20.0087C22.3983 19.7553 22.389 19.4508 22.2408 19.206C22.0924 18.9613 21.827 18.8124 21.5409 18.8124H11.7958C10.5434 18.8124 9.36785 19.3005 8.48162 20.1857L2.93721 25.7301C2.571 26.0963 2.571 26.6896 2.93721 27.0558L7.62469 31.7252C7.8078 31.9083 8.04778 32.0001 8.28753 32.0001C8.52728 32.0001 8.76726 31.9083 8.95037 31.7252L12.5063 28.1874H20.3595C22.8077 28.1874 25.036 26.8397 26.1732 24.6708L30.4908 16.4357C30.6446 16.1454 30.6336 15.7958 30.4635 15.5146Z" fill="#158467"/>
<path id="Vector_2" d="M11.1806 16.9374H22.4305C22.9488 16.9374 23.368 16.518 23.368 15.9999V4.68748C23.368 4.16942 22.9488 3.74999 22.4305 3.74999H19.618V2.81249C19.618 1.26171 18.3563 0 16.8055 0C15.2548 0 13.9931 1.26171 13.9931 2.81249V3.74999H11.1806C10.6625 3.74999 10.2431 4.16942 10.2431 4.68748V15.9999C10.2431 16.518 10.6625 16.9374 11.1806 16.9374ZM15.868 2.81249C15.868 2.29516 16.2892 1.87499 16.8055 1.87499C17.3219 1.87499 17.743 2.29516 17.743 2.81249V3.74999H15.868V2.81249Z" fill="#1EA682"/>
</g>
<defs>
<clipPath id="clip0_0_153">
<rect width="32" height="32" fill="white" transform="translate(0.599998)"/>
</clipPath>
</defs>
</svg>
