<svg width="54" height="54" viewBox="0 0 54 54" fill="none" xmlns="http://www.w3.org/2000/svg">
<g id="Settings" clip-path="url(#clip0_0_669)">
<path id="Vector" d="M27 54C41.9117 54 54 41.9117 54 27C54 12.0883 41.9117 0 27 0C12.0883 0 0 12.0883 0 27C0 41.9117 12.0883 54 27 54Z" fill="#158467"/>
<path id="Vector_2" d="M54.0001 27C54.0001 26.3617 53.978 25.7286 53.9344 25.1014L43.4997 14.6666L8.50513 38.1207L24.2457 53.8612C25.1514 53.953 26.0702 54 27.0001 54C41.9118 54 54.0001 41.9117 54.0001 27Z" fill="#197163"/>
<path id="Vector_3" d="M44.0298 35.7439H9.96912V16.1392C9.96912 14.8642 11.0027 13.8306 12.2777 13.8306H41.7212C42.9962 13.8306 44.0298 14.8642 44.0298 16.1392V35.7439Z" fill="white"/>
<path id="Vector_4" d="M44.0306 16.1392C44.0306 14.8642 42.997 13.8306 41.722 13.8306H26.9926V35.7439H44.0306V16.1392Z" fill="#E9EDF5"/>
<path id="Vector_5" d="M44.1443 38.5458H9.8558C8.55242 38.5458 7.49573 37.4892 7.49573 36.1857V32.942H46.5044V36.1857C46.5044 37.4891 45.4478 38.5458 44.1443 38.5458Z" fill="#E9EDF5"/>
<path id="Vector_6" d="M26.9926 32.942V38.5457H44.1446C45.448 38.5457 46.5047 37.4891 46.5047 36.1856V32.942H26.9926Z" fill="#CDD2E1"/>
<path id="Vector_7" d="M12.9326 16.3185H41.0676V32.9421H12.9326V16.3185Z" fill="#ECFFFA"/>
<path id="Vector_8" d="M26.9926 16.3185H41.0678V32.9421H26.9926V16.3185Z" fill="#C0DAD3"/>
<path id="Vector_9" d="M23.5439 28.369C25.4528 26.4601 28.5477 26.4601 30.4566 28.369C31.6971 29.6095 32.1306 31.3507 31.7588 32.942H37.4028V30.1516H35.531C35.3131 29.0354 34.8749 27.9537 34.2166 26.9763L35.5396 25.6533L33.1723 23.2862L31.8493 24.6092C30.8718 23.9507 29.7902 23.5126 28.674 23.2946V21.4229H25.3263V23.2946C24.2101 23.5125 23.1284 23.9507 22.1511 24.6091L20.8281 23.2861L18.4608 25.6532L19.7838 26.9762C19.1255 27.9537 18.6872 29.0354 18.4693 30.1514H16.5976V32.9419H22.2415C21.87 31.3507 22.3035 29.6094 23.5439 28.369Z" fill="#414952"/>
<path id="Vector_10" d="M35.5311 30.1516C35.3132 29.0354 34.875 27.9538 34.2166 26.9763L35.5396 25.6533L33.1724 23.2862L31.8494 24.6092C30.8719 23.9508 29.7902 23.5126 28.6741 23.2946V21.4229H26.9926V26.9375C28.246 26.9355 29.5003 27.4125 30.4567 28.369C31.6972 29.6095 32.1307 31.3507 31.7589 32.942H37.4028V30.1516H35.5311Z" fill="#23272B"/>
</g>
<defs>
<clipPath id="clip0_0_669">
<rect width="54" height="54" fill="white"/>
</clipPath>
</defs>
</svg>
